<svg width="20" height="20" viewBox="0 0 20 20" fill="none" xmlns="http://www.w3.org/2000/svg">
<path d="M11.7813 12.0667C14.0933 12.9362 16.7996 12.3091 18.4773 10.3097C20.6049 7.7741 20.2733 3.98434 17.7377 1.85671C15.2021 -0.270913 11.4124 0.0606479 9.28473 2.59625C7.60705 4.59563 7.45936 7.3697 8.71715 9.49556L5.92103 12.8278L2.85685 10.2567L0.285698 13.3209L3.34988 15.892L2.0643 17.4241L5.12848 19.9953L11.7813 12.0667ZM12.3489 5.16741C13.056 4.32476 14.3239 4.21383 15.1666 4.92089C16.0092 5.62796 16.1201 6.89591 15.4131 7.73856C14.706 8.5812 13.4381 8.69214 12.5954 7.98507C11.7528 7.278 11.6418 6.01005 12.3489 5.16741Z" fill="white"/>
</svg>
